<?xml version="1.0" encoding="UTF-8" standalone="no"?>
<!-- Created with Inkscape (http://www.inkscape.org/) -->

<svg
   xmlns:dc="http://purl.org/dc/elements/1.1/"
   xmlns:cc="http://creativecommons.org/ns#"
   xmlns:rdf="http://www.w3.org/1999/02/22-rdf-syntax-ns#"
   xmlns:svg="http://www.w3.org/2000/svg"
   xmlns="http://www.w3.org/2000/svg"
   xmlns:sodipodi="http://sodipodi.sourceforge.net/DTD/sodipodi-0.dtd"
   xmlns:inkscape="http://www.inkscape.org/namespaces/inkscape"
   width="96.056305mm"
   height="83.77372mm"
   viewBox="0 0 96.056305 83.77372"
   version="1.1"
   id="svg16"
   inkscape:version="0.92.1 r15371"
   sodipodi:docname="pizzeria.svg">
  <defs
     id="defs10">
    <inkscape:path-effect
       effect="bspline"
       id="path-effect1075"
       is_visible="true"
       weight="33.333333"
       steps="2"
       helper_size="0"
       apply_no_weight="true"
       apply_with_weight="true"
       only_selected="false" />
    <inkscape:path-effect
       effect="bspline"
       id="path-effect1071"
       is_visible="true"
       weight="33.333333"
       steps="2"
       helper_size="0"
       apply_no_weight="true"
       apply_with_weight="true"
       only_selected="false" />
    <inkscape:path-effect
       effect="bspline"
       id="path-effect1067"
       is_visible="true"
       weight="33.333333"
       steps="2"
       helper_size="0"
       apply_no_weight="true"
       apply_with_weight="true"
       only_selected="false" />
    <inkscape:path-effect
       effect="bspline"
       id="path-effect1063"
       is_visible="true"
       weight="33.333333"
       steps="2"
       helper_size="0"
       apply_no_weight="true"
       apply_with_weight="true"
       only_selected="false" />
    <inkscape:path-effect
       effect="bspline"
       id="path-effect1059"
       is_visible="true"
       weight="33.333333"
       steps="2"
       helper_size="0"
       apply_no_weight="true"
       apply_with_weight="true"
       only_selected="false" />
    <inkscape:path-effect
       effect="bspline"
       id="path-effect1055"
       is_visible="true"
       weight="33.333333"
       steps="2"
       helper_size="0"
       apply_no_weight="true"
       apply_with_weight="true"
       only_selected="false" />
    <inkscape:path-effect
       effect="bspline"
       id="path-effect1051"
       is_visible="true"
       weight="33.333333"
       steps="2"
       helper_size="0"
       apply_no_weight="true"
       apply_with_weight="true"
       only_selected="false" />
    <inkscape:path-effect
       effect="bspline"
       id="path-effect1047"
       is_visible="true"
       weight="33.333333"
       steps="2"
       helper_size="0"
       apply_no_weight="true"
       apply_with_weight="true"
       only_selected="false" />
    <inkscape:path-effect
       effect="bspline"
       id="path-effect1043"
       is_visible="true"
       weight="33.333333"
       steps="2"
       helper_size="0"
       apply_no_weight="true"
       apply_with_weight="true"
       only_selected="false" />
    <inkscape:path-effect
       effect="bspline"
       id="path-effect1039"
       is_visible="true"
       weight="33.333333"
       steps="2"
       helper_size="0"
       apply_no_weight="true"
       apply_with_weight="true"
       only_selected="false" />
    <inkscape:path-effect
       effect="bspline"
       id="path-effect1035"
       is_visible="true"
       weight="33.333333"
       steps="2"
       helper_size="0"
       apply_no_weight="true"
       apply_with_weight="true"
       only_selected="false" />
    <inkscape:path-effect
       effect="bspline"
       id="path-effect1031"
       is_visible="true"
       weight="33.333333"
       steps="2"
       helper_size="0"
       apply_no_weight="true"
       apply_with_weight="true"
       only_selected="false" />
    <inkscape:path-effect
       effect="bspline"
       id="path-effect1027"
       is_visible="true"
       weight="33.333333"
       steps="2"
       helper_size="0"
       apply_no_weight="true"
       apply_with_weight="true"
       only_selected="false" />
    <inkscape:path-effect
       effect="bspline"
       id="path-effect1023"
       is_visible="true"
       weight="33.333333"
       steps="2"
       helper_size="0"
       apply_no_weight="true"
       apply_with_weight="true"
       only_selected="false" />
    <inkscape:path-effect
       effect="bspline"
       id="path-effect1019"
       is_visible="true"
       weight="33.333333"
       steps="2"
       helper_size="0"
       apply_no_weight="true"
       apply_with_weight="true"
       only_selected="false" />
    <inkscape:path-effect
       effect="bspline"
       id="path-effect1015"
       is_visible="true"
       weight="33.333333"
       steps="2"
       helper_size="0"
       apply_no_weight="true"
       apply_with_weight="true"
       only_selected="false" />
    <inkscape:path-effect
       effect="bspline"
       id="path-effect1011"
       is_visible="true"
       weight="33.333333"
       steps="2"
       helper_size="0"
       apply_no_weight="true"
       apply_with_weight="true"
       only_selected="false" />
    <inkscape:path-effect
       effect="bspline"
       id="path-effect901"
       is_visible="true"
       weight="33.333333"
       steps="2"
       helper_size="0"
       apply_no_weight="true"
       apply_with_weight="true"
       only_selected="false" />
    <inkscape:path-effect
       effect="bspline"
       id="path-effect871"
       is_visible="true"
       weight="33.333333"
       steps="2"
       helper_size="0"
       apply_no_weight="true"
       apply_with_weight="true"
       only_selected="false" />
  </defs>
  <sodipodi:namedview
     id="base"
     pagecolor="#ffffff"
     bordercolor="#666666"
     borderopacity="1.0"
     inkscape:pageopacity="0.0"
     inkscape:pageshadow="2"
     inkscape:zoom="1.979899"
     inkscape:cx="128.10246"
     inkscape:cy="164.93398"
     inkscape:document-units="mm"
     inkscape:current-layer="layer1"
     showgrid="false"
     inkscape:window-width="2400"
     inkscape:window-height="1271"
     inkscape:window-x="-9"
     inkscape:window-y="-9"
     inkscape:window-maximized="1" />
  <metadata
     id="metadata13">
    <rdf:RDF>
      <cc:Work
         rdf:about="">
        <dc:format>image/svg+xml</dc:format>
        <dc:type
           rdf:resource="http://purl.org/dc/dcmitype/StillImage" />
        <dc:title></dc:title>
      </cc:Work>
    </rdf:RDF>
  </metadata>
  <g
     inkscape:label="Layer 1"
     inkscape:groupmode="layer"
     id="layer1"
     transform="translate(-62.070027,-102.61154)">
    <rect
       id="rect20"
       width="95.820724"
       height="83.538139"
       x="62.187817"
       y="102.72933"
       style="fill:#f78000;fill-opacity:1;stroke:#000000;stroke-width:0.23557937;stroke-opacity:1" />
    <path
       style="fill:#ffb05a;fill-opacity:1;stroke:#000000;stroke-width:0.26458332px;stroke-linecap:butt;stroke-linejoin:miter;stroke-opacity:1"
       d="m 135.61589,185.98072 c -0.7912,-0.42675 -2.37356,-1.28025 -6.8245,-5.4604 -4.45094,-4.18015 -11.77054,-11.68704 -15.30139,-15.67581 -3.53086,-3.98877 -3.2733,-4.4593 -5.14781,-4.87643 -1.87451,-0.41713 -5.88662,-0.78174 -8.875736,-1.20333 -2.989115,-0.4216 -4.957838,-0.90041 -6.443044,-2.14362 -1.485207,-1.24322 -2.486582,-3.25044 -3.056438,-5.17543 -0.569856,-1.92499 -0.708265,-3.76794 1.063483,-5.229 1.771749,-1.46107 5.45466,-2.54108 8.975305,-2.28597 3.52064,0.25511 6.88032,1.8453 9.12058,3.48058 2.24026,1.63529 3.36143,3.31593 5.34275,5.02044 1.98132,1.70452 4.82217,3.43242 11.89148,5.54129 7.0693,2.10887 18.36641,4.59844 24.23744,9.4417 5.87102,4.84326 6.29391,11.68444 3.02431,15.24255 -3.2696,3.5581 -10.24211,3.65414 -13.72868,3.70216 -3.48657,0.048 -3.48656,0.048 -4.27775,-0.37873 z"
       id="path899"
       inkscape:connector-curvature="0"
       inkscape:path-effect="#path-effect901"
       inkscape:original-d="m 136.40708,186.40748 c -1.58221,-0.85384 -3.16457,-1.70734 -4.7471,-2.5605 -7.31928,-7.50706 -14.63888,-15.01394 -21.95856,-22.52041 0.25771,-0.47084 0.51526,-0.94137 0.77265,-1.41154 -4.00636,-0.36444 -8.01847,-0.72904 -12.027943,-1.09305 -1.9687,-0.47919 -3.937424,-0.958 -5.906373,-1.43649 -1.001282,-2.00771 -2.002668,-4.01493 -3.004234,-6.02189 -0.138218,-1.8429 -0.27663,-3.68585 -0.415182,-5.52826 3.681786,-1.07998 7.364699,-2.15999 11.046802,-3.23948 3.35942,1.58964 6.7191,3.17983 10.0784,4.77025 1.12133,1.68031 2.2425,3.36095 3.36351,5.04194 2.84155,1.7279 5.6824,3.45581 8.52337,5.18422 11.29753,2.48929 22.59464,4.97885 33.89173,7.46879 0.44516,7.19692 0.86805,14.0381 1.30173,21.05829 -6.97316,0.0958 -13.94567,0.19181 -20.91881,0.28812 z"
       sodipodi:nodetypes="cccccccccccccccc" />
    <path
       style="fill:#fffe00;fill-opacity:1;stroke:#ffa800;stroke-width:1.96500003;stroke-linecap:butt;stroke-linejoin:miter;stroke-miterlimit:4;stroke-dasharray:none;stroke-opacity:1"
       d="m 66.876735,166.48913 c -0.385455,-5.08306 -1.156337,-15.24881 3.422482,-23.52394 4.578819,-8.27513 14.50775,-14.66025 26.069231,-18.22993 11.561482,-3.56969 24.756582,-4.32434 32.806362,-2.42085 8.04978,1.90349 10.95487,6.46537 9.01664,10.95945 -1.93822,4.49407 -8.71948,8.91992 -16.12726,9.62307 -7.40779,0.70316 -15.44095,-2.31651 -23.795862,3.567 -8.354908,5.88352 -17.031526,20.67069 -22.252968,26.33928 -5.221443,5.66859 -6.987344,2.21871 -7.870256,0.49384 -0.882911,-1.72486 -0.882914,-1.72486 -1.268369,-6.80792 z"
       id="path869"
       inkscape:connector-curvature="0"
       inkscape:path-effect="#path-effect871"
       inkscape:original-d="m 67.26219,171.57219 c -0.770775,-10.16613 -1.541651,-20.33188 -2.312649,-30.49729 9.928372,-6.38503 19.85731,-12.77014 29.785783,-19.15471 13.194586,-0.75494 26.389686,-1.50961 39.584356,-2.26389 2.90514,4.56145 5.81021,9.12335 8.71519,13.68553 -6.78177,4.4259 -13.56303,8.85174 -20.34471,13.27816 -8.03362,-3.02027 -16.06679,-6.03993 -24.100342,-9.05934 -8.676475,14.78675 -17.353094,29.57392 -26.0298,44.36142 -1.765869,-3.45039 -3.531773,-6.90027 -5.297825,-10.34988 z" />
    <path
       style="fill:#ffffff;fill-opacity:1;stroke:#000000;stroke-width:0.26458332px;stroke-linecap:butt;stroke-linejoin:miter;stroke-opacity:1"
       d="m 130.13686,186.11435 -10.13284,-13.52832 3.0736,-1.06908 10.95805,-6.949 2.27179,-4.40995 6.5481,0.13364 0.4009,1.73725 5.47903,2.67269 c 0,0 8.15172,2.93996 9.08717,3.60814 l 0.26726,10.28988 -0.0959,7.65337 z"
       id="path959"
       inkscape:connector-curvature="0"
       sodipodi:nodetypes="cccccccccccc" />
    <path
       style="fill:#ff0000;fill-opacity:1;stroke:#000000;stroke-width:0.26458332px;stroke-linecap:butt;stroke-linejoin:miter;stroke-opacity:1"
       d="m 75.503657,157.52976 c -0.712771,-0.57921 -0.757316,-0.84648 -0.534714,-1.69231 0.222601,-0.84583 0.712988,-2.27241 1.42552,-1.69353 0.712532,0.57888 1.648184,3.16306 1.425481,4.00948 -0.222703,0.84642 -1.603517,-0.0444 -2.316287,-0.62364 z"
       id="path1009"
       inkscape:connector-curvature="0"
       inkscape:path-effect="#path-effect1011"
       inkscape:original-d="m 74.835466,157.21803 c -0.04428,-0.26753 -0.08882,-0.5348 -0.133633,-0.8018 0.489865,-1.42456 0.980252,-2.85114 1.469983,-4.27631 0.935497,2.58276 1.871149,5.16694 2.806329,7.75081 -1.380709,-0.89121 -2.761522,-1.78206 -4.142679,-2.6727 z" />
    <path
       style="fill:#ff0000;stroke:#000000;stroke-width:0.26458332px;stroke-linecap:butt;stroke-linejoin:miter;stroke-opacity:1"
       d="m 74.546133,147.15073 c -0.868672,0.71256 -1.625934,2.18254 -1.20255,3.00681 0.423383,0.82427 2.026655,1.00242 2.895167,0.28966 0.868511,-0.71276 1.002165,-2.31661 0.57919,-3.14054 -0.422975,-0.82393 -1.403134,-0.86849 -2.271807,-0.15593 z"
       id="path1013"
       inkscape:connector-curvature="0"
       inkscape:path-effect="#path-effect1015"
       inkscape:original-d="m 74.434561,146.39362 c -0.756996,1.46972 -1.51426,2.9397 -2.271789,4.40995 1.604227,0.17795 3.207499,0.35609 4.81085,0.53454 0.133882,-1.60365 0.267536,-3.2075 0.400905,-4.81086 -0.979549,-0.0448 -1.959711,-0.0893 -2.939966,-0.13363 z" />
    <path
       style="fill:#ff0000;fill-opacity:1;stroke:#000000;stroke-width:0.26458332px;stroke-linecap:butt;stroke-linejoin:miter;stroke-opacity:1"
       d="m 72.586078,163.92202 c -0.467872,0.69044 0.556656,1.9377 1.536771,1.87073 0.980115,-0.067 1.915536,-1.44783 1.403523,-2.07133 -0.512012,-0.62351 -2.472422,-0.48984 -2.940294,0.2006 z"
       id="path1017"
       inkscape:connector-curvature="0"
       inkscape:path-effect="#path-effect1019"
       inkscape:original-d="m 71.093694,163.36523 c 1.024798,1.247 2.04933,2.49425 3.073599,3.74178 0.93573,-1.38119 1.871151,-2.76205 2.806329,-4.14268 -1.959279,0.13334 -3.919688,0.26701 -5.879928,0.4009 z" />
    <path
       style="fill:#ff0000;stroke:#000000;stroke-width:0.26458332px;stroke-linecap:butt;stroke-linejoin:miter;stroke-opacity:1"
       d="m 72.49705,158.49474 c -0.512396,-0.25248 -0.289672,-1.3661 0.333842,-1.6704 0.623514,-0.30429 1.648333,0.20066 1.537141,0.75734 -0.111191,0.55667 -1.358587,1.16555 -1.870983,0.91306 z"
       id="path1021"
       inkscape:connector-curvature="0"
       inkscape:path-effect="#path-effect1023"
       inkscape:original-d="m 71.761868,159.35619 c 0.222988,-1.11389 0.445714,-2.22751 0.668173,-3.34087 1.024522,0.50441 2.049341,1.00936 3.073614,1.51444 -1.246867,0.60848 -2.494261,1.21736 -3.741787,1.82643 z" />
    <path
       style="fill:#ff0000;stroke:#000000;stroke-width:0.26458332px;stroke-linecap:butt;stroke-linejoin:miter;stroke-opacity:1"
       d="m 84.902768,145.72516 c -0.757164,-0.13362 -2.672594,2.00453 -2.872967,3.20741 -0.200374,1.20289 1.313958,1.47013 2.271564,0.40105 0.957606,-1.06908 1.358567,-3.47484 0.601403,-3.60846 z"
       id="path1025"
       inkscape:connector-curvature="0"
       inkscape:path-effect="#path-effect1027"
       inkscape:original-d="m 86.060787,143.45366 c -1.915168,2.13789 -3.830598,4.27604 -5.746295,6.41446 1.514988,0.26704 3.02932,0.53428 4.543581,0.80181 0.401114,-2.40535 0.802074,-4.81111 1.202714,-7.21627 z" />
    <path
       style="fill:#ff0000;stroke:#000000;stroke-width:0.26458332px;stroke-linecap:butt;stroke-linejoin:miter;stroke-opacity:1"
       d="m 88.377283,137.30629 c -1.51439,-0.89077 -4.721624,-0.44532 -5.902198,0.51244 -1.180574,0.95776 -0.334296,2.42761 1.180428,3.31857 1.514724,0.89097 3.697298,1.20276 4.87763,0.245 1.180332,-0.95776 1.35853,-3.18523 -0.15586,-4.07601 z"
       id="path1029"
       inkscape:connector-curvature="0"
       inkscape:path-effect="#path-effect1031"
       inkscape:original-d="m 90.06983,135.97011 c -3.206969,0.44518 -6.414203,0.89063 -9.621702,1.33635 0.846696,1.46985 1.692971,2.9397 2.539061,4.40994 2.18309,0.31157 4.365664,0.62337 6.548101,0.93545 0.178427,-2.22729 0.356624,-4.45476 0.53454,-6.68174 z" />
    <path
       style="fill:#ff0000;stroke:#000000;stroke-width:0.26458332px;stroke-linecap:butt;stroke-linejoin:miter;stroke-opacity:1"
       d="m 78.109587,141.49353 c -0.645863,-0.17835 -0.824042,0.35619 -0.266813,0.80193 0.557229,0.44574 1.848266,0.80189 1.93736,0.53467 0.0891,-0.26722 -1.024685,-1.15825 -1.670547,-1.3366 z"
       id="path1033"
       inkscape:connector-curvature="0"
       inkscape:path-effect="#path-effect1035"
       inkscape:original-d="m 77.641796,140.78096 c -0.177914,0.53427 -0.356095,1.06881 -0.534538,1.60362 1.292833,0.3563 2.58387,0.71245 3.875408,1.06908 -1.113206,-0.89104 -2.226982,-1.78207 -3.34087,-2.6727 z" />
    <path
       style="fill:#ff0000;stroke:#000000;stroke-width:0.26458332px;stroke-linecap:butt;stroke-linejoin:miter;stroke-opacity:1"
       d="m 102.07499,132.09454 c -1.84862,0.97993 -3.719509,2.36082 -3.763996,3.4301 -0.04449,1.06927 1.737036,1.82641 4.565586,1.51457 2.82855,-0.31185 6.70425,-1.69284 7.66191,-3.05133 0.95766,-1.35849 -1.00247,-2.69495 -2.89553,-3.07364 -1.89306,-0.3787 -3.71935,0.20037 -5.56797,1.1803 z"
       id="path1037"
       inkscape:connector-curvature="0"
       inkscape:path-effect="#path-effect1039"
       inkscape:original-d="m 102.09696,131.6938 c -1.87063,1.38062 -3.74151,2.76152 -5.612661,4.14267 1.782344,0.75712 3.563861,1.51427 5.345391,2.27179 3.87539,-1.38105 7.75108,-2.76205 11.62622,-4.14267 -1.95955,-1.33651 -3.91968,-2.67296 -5.87993,-4.00905 -1.82613,0.57884 -3.65242,1.15791 -5.47902,1.73726 z" />
    <path
       style="fill:#ff0000;stroke:#000000;stroke-width:0.26458332px;stroke-linecap:butt;stroke-linejoin:miter;stroke-opacity:1"
       d="m 92.297234,132.94083 c -0.578926,-0.31177 -1.737097,0.35641 -1.73705,1.00251 4.8e-5,0.6461 1.157903,1.26955 1.736939,0.93536 0.579037,-0.33419 0.579037,-1.6261 1.11e-4,-1.93787 z"
       id="path1041"
       inkscape:connector-curvature="0"
       inkscape:path-effect="#path-effect1043"
       inkscape:original-d="m 92.87616,131.96107 c -1.157904,0.6679 -2.316073,1.33608 -3.474503,2.00452 1.158745,0.62353 2.316599,1.24699 3.474503,1.87088 2.64e-4,-1.29196 2.64e-4,-2.58387 0,-3.8754 z" />
    <path
       style="fill:#ff0000;stroke:#000000;stroke-width:0.26458332px;stroke-linecap:butt;stroke-linejoin:miter;stroke-opacity:1"
       d="m 93.054398,141.93889 c -0.712606,-0.0892 -1.514413,1.38081 -1.202418,2.20508 0.311994,0.82428 1.737127,1.00242 2.13794,0.26747 0.400814,-0.73494 -0.222916,-2.38337 -0.935522,-2.47255 z"
       id="path1045"
       inkscape:connector-curvature="0"
       inkscape:path-effect="#path-effect1047"
       inkscape:original-d="m 93.143429,140.38005 c -0.801545,1.46972 -1.603352,2.9397 -2.405425,4.40995 1.426006,0.17796 2.851139,0.3561 4.276312,0.53454 -0.623266,-1.64816 -1.246995,-3.29659 -1.870887,-4.94449 z" />
    <path
       style="fill:#ff0000;stroke:#000000;stroke-width:0.26458332px;stroke-linecap:butt;stroke-linejoin:miter;stroke-opacity:1"
       d="m 94.658089,137.92993 c -0.712533,-0.26726 -1.781614,0.22273 -1.603305,0.73518 0.178308,0.51244 1.603319,1.04682 2.137777,0.80178 0.534458,-0.24505 0.178061,-1.26969 -0.534472,-1.53696 z"
       id="path1049"
       inkscape:connector-curvature="0"
       inkscape:path-effect="#path-effect1051"
       inkscape:original-d="m 95.014316,137.17282 c -1.068814,0.48973 -2.137892,0.97973 -3.207234,1.46998 1.426128,0.53444 2.851139,1.06882 4.276312,1.60362 -0.356058,-1.02469 -0.712454,-2.04933 -1.069078,-3.0736 z" />
    <path
       style="fill:#ff0000;stroke:#000000;stroke-width:0.26458332px;stroke-linecap:butt;stroke-linejoin:miter;stroke-opacity:1"
       d="m 98.31089,129.77819 c -1.425482,0.6235 -2.093655,1.60349 -1.001806,1.46974 1.09185,-0.13374 3.941846,-1.38061 4.276036,-1.87057 0.3342,-0.48996 -1.848749,-0.22266 -3.27423,0.40083 z"
       id="path1053"
       inkscape:connector-curvature="0"
       inkscape:path-effect="#path-effect1055"
       inkscape:original-d="m 97.553377,129.422 c -0.667909,0.97973 -1.336083,1.95972 -2.004521,2.93997 2.852023,-1.24791 5.702014,-2.49478 8.552624,-3.74177 -2.18219,0.26697 -4.365137,0.53427 -6.548103,0.8018 z" />
    <path
       style="fill:#ff0000;stroke:#000000;stroke-width:0.26458332px;stroke-linecap:butt;stroke-linejoin:miter;stroke-opacity:1"
       d="m 119.93728,125.502 c -0.60122,-1.20263 -0.86848,-1.24717 -2.38407,-0.89057 -1.51559,0.3566 -4.27516,1.11326 -5.34438,1.98195 -1.06923,0.86868 -0.44566,1.84856 1.53682,2.67272 1.98249,0.82416 5.32313,1.49229 6.52574,0.64592 1.20261,-0.84637 0.26711,-3.20739 -0.33411,-4.41002 z"
       id="path1057"
       inkscape:connector-curvature="0"
       inkscape:path-effect="#path-effect1059"
       inkscape:original-d="m 119.60311,124.34388 c -0.267,-0.0448 -0.53427,-0.0893 -0.80181,-0.13363 -2.76373,0.75761 -5.5233,1.51426 -8.28535,2.27179 0.62396,0.97983 1.24752,1.95971 1.87089,2.93996 3.34136,0.66796 6.682,1.33609 10.0226,2.00453 -0.93512,-2.36101 -1.87062,-4.72203 -2.80633,-7.08265 z" />
    <path
       style="fill:#ff0000;stroke:#000000;stroke-width:0.26458332px;stroke-linecap:butt;stroke-linejoin:miter;stroke-opacity:1"
       d="m 112.34246,137.06136 c -1.33623,-0.067 -2.44985,0.82394 -1.66999,1.33635 0.77987,0.5124 3.45187,0.64601 4.00866,0.20062 0.55679,-0.44538 -1.00243,-1.47001 -2.33867,-1.53697 z"
       id="path1061"
       inkscape:connector-curvature="0"
       inkscape:path-effect="#path-effect1063"
       inkscape:original-d="m 112.11956,136.10374 c -1.11336,0.89063 -2.22698,1.78153 -3.34086,2.67269 2.67365,0.13341 5.34565,0.26701 8.01808,0.40091 -1.55866,-1.0247 -3.11788,-2.04933 -4.67722,-3.0736 z" />
    <path
       style="fill:#ff0000;stroke:#000000;stroke-width:0.26458332px;stroke-linecap:butt;stroke-linejoin:miter;stroke-opacity:1"
       d="m 127.4877,134.18822 c -1.4698,-0.22275 -3.60796,0.57905 -3.20688,1.20279 0.40108,0.62374 3.3406,1.06912 4.40957,0.66822 1.06898,-0.40091 0.26711,-1.64826 -1.20269,-1.87101 z"
       id="path1065"
       inkscape:connector-curvature="0"
       inkscape:path-effect="#path-effect1067"
       inkscape:original-d="m 128.15574,133.16378 c -2.13789,0.80154 -4.27605,1.60335 -6.41447,2.40542 2.94067,0.44526 5.88019,0.89064 8.81989,1.33635 -0.80148,-1.24743 -1.60335,-2.49478 -2.40542,-3.74177 z" />
    <path
       style="fill:#ff0000;stroke:#000000;stroke-width:0.26458332px;stroke-linecap:butt;stroke-linejoin:miter;stroke-opacity:1"
       d="m 117.57653,132.67379 c -0.77945,-0.26733 -1.04671,-0.22278 -1.23249,0.4051 -0.18577,0.62789 -0.28954,1.83664 0.49034,2.10391 0.77988,0.26726 2.44245,-0.40814 2.62805,-1.03532 0.1856,-0.62718 -1.10645,-1.20637 -1.8859,-1.47369 z"
       id="path1069"
       inkscape:connector-curvature="0"
       inkscape:path-effect="#path-effect1071"
       inkscape:original-d="m 117.06405,132.36197 c -0.267,0.0443 -0.53427,0.0888 -0.80181,0.13363 -0.10373,1.2112 -0.20749,2.41995 -0.31164,3.63032 1.66361,-0.67599 3.32617,-1.3514 4.98886,-2.0267 -1.29129,-0.57924 -2.58334,-1.15843 -3.87541,-1.73725 z" />
    <path
       style="fill:#ff0000;stroke:#000000;stroke-width:0.26458332px;stroke-linecap:butt;stroke-linejoin:miter;stroke-opacity:1"
       d="m 127.55456,128.9765 c -0.86848,-0.44554 -1.26939,-0.26736 -1.67055,0.31203 -0.40116,0.57938 -0.80174,1.55859 0.0673,2.00418 0.86905,0.44559 3.00651,0.35653 3.40738,-0.22247 0.40087,-0.57899 -0.93565,-1.64821 -1.80413,-2.09374 z"
       id="path1073"
       inkscape:connector-curvature="0"
       inkscape:path-effect="#path-effect1075"
       inkscape:original-d="m 127.08666,128.35293 c -0.40064,0.17791 -0.80154,0.35609 -1.20271,0.53453 -0.40096,0.98051 -0.80155,1.95972 -1.20272,2.93997 2.13912,-0.0894 4.27658,-0.17844 6.41447,-0.26727 -1.33591,-1.0692 -2.67243,-2.13842 -4.00904,-3.20723 z" />
  </g>
</svg>
