<?xml version="1.0" encoding="UTF-8" standalone="no"?>
<!-- Created with Inkscape (http://www.inkscape.org/) -->

<svg
   xmlns:dc="http://purl.org/dc/elements/1.1/"
   xmlns:cc="http://creativecommons.org/ns#"
   xmlns:rdf="http://www.w3.org/1999/02/22-rdf-syntax-ns#"
   xmlns:svg="http://www.w3.org/2000/svg"
   xmlns="http://www.w3.org/2000/svg"
   xmlns:sodipodi="http://sodipodi.sourceforge.net/DTD/sodipodi-0.dtd"
   xmlns:inkscape="http://www.inkscape.org/namespaces/inkscape"
   width="105.31407mm"
   height="90.902496mm"
   viewBox="0 0 105.31407 90.902496"
   version="1.1"
   id="svg8"
   inkscape:version="0.92.1 r15371"
   sodipodi:docname="slug.svg">
  <defs
     id="defs2">
    <inkscape:path-effect
       only_selected="false"
       apply_with_weight="true"
       apply_no_weight="true"
       helper_size="0"
       steps="2"
       weight="33.333333"
       is_visible="true"
       id="path-effect2133"
       effect="bspline" />
    <inkscape:path-effect
       effect="bspline"
       id="path-effect2129"
       is_visible="true"
       weight="33.333333"
       steps="2"
       helper_size="0"
       apply_no_weight="true"
       apply_with_weight="true"
       only_selected="false" />
    <inkscape:path-effect
       effect="bspline"
       id="path-effect1580"
       is_visible="true"
       weight="33.333333"
       steps="2"
       helper_size="0"
       apply_no_weight="true"
       apply_with_weight="true"
       only_selected="false" />
    <inkscape:path-effect
       effect="bspline"
       id="path-effect1576"
       is_visible="true"
       weight="33.333333"
       steps="2"
       helper_size="0"
       apply_no_weight="true"
       apply_with_weight="true"
       only_selected="false" />
  </defs>
  <sodipodi:namedview
     id="base"
     pagecolor="#ffffff"
     bordercolor="#666666"
     borderopacity="1.0"
     inkscape:pageopacity="0.0"
     inkscape:pageshadow="2"
     inkscape:zoom="1.979899"
     inkscape:cx="271.56834"
     inkscape:cy="148.39087"
     inkscape:document-units="mm"
     inkscape:current-layer="layer1"
     showgrid="false"
     inkscape:window-width="2400"
     inkscape:window-height="1271"
     inkscape:window-x="-9"
     inkscape:window-y="-9"
     inkscape:window-maximized="1" />
  <metadata
     id="metadata5">
    <rdf:RDF>
      <cc:Work
         rdf:about="">
        <dc:format>image/svg+xml</dc:format>
        <dc:type
           rdf:resource="http://purl.org/dc/dcmitype/StillImage" />
        <dc:title></dc:title>
      </cc:Work>
    </rdf:RDF>
  </metadata>
  <g
     inkscape:label="Layer 1"
     inkscape:groupmode="layer"
     id="layer1"
     transform="translate(-6.4830647,-58.150007)">
    <path
       style="fill:#acff93;fill-opacity:1;stroke:#000000;stroke-width:0.26458332px;stroke-linecap:butt;stroke-linejoin:miter;stroke-opacity:1"
       d="m 16.192169,145.39136 c 1.225094,1.22502 1.670549,1.31411 9.885451,2.11557 8.214901,0.80145 24.213833,2.31667 38.401339,0.69075 14.187506,-1.62593 26.571179,-6.39231 32.629129,-12.89583 6.057952,-6.50352 5.790672,-14.74454 7.416652,-20.53533 1.62597,-5.79079 5.14513,-9.13176 6.50363,-15.078168 1.3585,-5.946406 0.55663,-14.499692 -2.6504,-19.221305 -3.20704,-4.721613 -8.819856,-5.612536 -10.579474,-2.783906 -1.759619,2.828631 0.333911,9.37648 0.222595,16.370049 -0.111315,6.99357 -2.427595,14.43239 -7.038046,21.11429 -4.610452,6.68189 -11.514624,12.60612 -22.317078,15.54621 -10.802454,2.94008 -25.501674,2.89554 -35.769304,3.85322 -10.267631,0.95768 -16.10291,2.91762 -18.018455,5.07815 -1.915544,2.16054 0.08887,4.52129 1.313961,5.7463 z"
       id="path1574"
       inkscape:connector-curvature="0"
       inkscape:path-effect="#path-effect1576"
       inkscape:original-d="m 16.971615,146.52725 c 0.445714,0.0888 0.891163,0.17792 1.336347,0.26727 15.984586,1.51358 31.983519,3.02879 47.97488,4.54359 12.383568,-4.7665 24.76724,-9.53288 37.150468,-14.29892 -0.267,-8.24087 -0.53428,-16.48189 -0.80181,-24.72243 3.5192,-3.34104 7.03836,-6.68201 10.55714,-10.02261 -0.80148,-8.552231 -1.60335,-17.105517 -2.40542,-25.657877 -5.61224,-0.891138 -11.225058,-1.782061 -16.837982,-2.672694 2.093957,6.548091 4.187486,13.095941 6.280832,19.64431 -2.316128,7.438921 -4.632407,14.877741 -6.949006,22.317001 -6.904492,5.92446 -13.808662,11.84869 -20.713387,17.77343 -14.700163,-0.0448 -29.399383,-0.0894 -44.099472,-0.13364 -5.835225,1.95975 -11.670505,3.91969 -17.506155,5.87993 2.004896,2.36075 4.009308,4.7215 6.013565,7.08264 z" />
    <path
       style="fill:#ac9393;fill-opacity:1;stroke:#b69a9a;stroke-width:1.56500006;stroke-linecap:butt;stroke-linejoin:miter;stroke-miterlimit:4;stroke-dasharray:none;stroke-opacity:1"
       d="M 27.328409,134.36653 C 22.985351,132.80747 15.36817,130.58022 11.047206,122.87366 6.7262412,115.16709 5.7017312,101.98209 10.200807,89.531873 14.699882,77.081654 24.722672,65.366126 36.059176,61.045395 c 11.336503,-4.32073 23.987568,-1.247056 33.275065,2.516949 9.287497,3.764005 15.212061,8.218564 19.866945,14.4102 4.654885,6.191636 8.040323,14.120688 8.619471,21.336925 0.579147,7.216241 -1.648063,13.719691 -6.525816,19.377071 -4.877753,5.65738 -12.405478,10.468 -22.428351,13.49716 -10.022874,3.02917 -22.539484,4.27637 -29.332727,4.45457 -6.793242,0.17819 -7.862295,-0.71269 -12.205354,-2.27174 z"
       id="path1578"
       inkscape:connector-curvature="0"
       inkscape:path-effect="#path-effect1580"
       inkscape:original-d="M 30.602361,135.03466 C 22.985444,132.80715 15.368262,130.57991 7.7508163,128.35293 6.7265245,115.16707 5.7020144,101.98207 4.6772168,88.797036 14.699904,77.081673 24.722695,65.366145 34.745038,53.651094 c 12.650716,3.073262 25.301781,6.146935 37.952272,9.220798 5.92465,4.454162 11.849214,8.908721 17.773425,13.363477 3.385653,7.928676 6.771092,15.857727 10.156245,23.786991 -2.227021,6.5034 -4.454231,13.00685 -6.681742,19.51067 -7.528195,4.81082 -15.055919,9.62144 -22.584275,14.43256 -12.517371,1.24704 -25.03398,2.49425 -37.551367,3.74177 -1.06884,-0.89118 -2.137892,-1.78206 -3.207235,-2.6727 z" />
    <path
       sodipodi:type="spiral"
       style="fill:none;fill-rule:evenodd;stroke:#b69a9a;stroke-width:1.86500001;stroke-miterlimit:4;stroke-dasharray:none;stroke-opacity:1"
       id="path2125"
       sodipodi:cx="49.845764"
       sodipodi:cy="98.285103"
       sodipodi:expansion="1"
       sodipodi:revolution="3"
       sodipodi:radius="37.001629"
       sodipodi:argument="-18.36491"
       sodipodi:t0="0"
       d="m 49.845764,98.285103 c 1.641558,0.86433 -0.355212,2.639217 -1.436573,2.728377 -2.930419,0.24162 -4.460334,-3.133354 -4.020181,-5.601523 0.787331,-4.414974 5.758043,-6.4453 9.766472,-5.311985 5.882532,1.663186 8.474363,8.413013 6.60379,13.931418 -2.49318,7.35517 -11.078034,10.52133 -18.096372,7.8956 -8.831861,-3.30422 -12.577376,-13.747678 -9.187397,-22.261324 4.105719,-10.311165 16.419885,-14.638649 26.42627,-10.479201 11.792179,4.901766 16.703199,19.09369 11.771006,30.591215 -5.694412,13.27436 -21.768561,18.76994 -34.75617,13.06281 C 22.159263,116.3557 16.078411,98.396313 22.561996,83.919375 29.835598,67.678439 49.682346,61.0118 65.648064,68.272957 83.373038,76.334218 90.62585,98.06989 82.586286,115.52398" />
    <path
       style="fill:#00ff00;stroke:#000000;stroke-width:0.31180274px;stroke-linecap:butt;stroke-linejoin:miter;stroke-opacity:1"
       d="m 103.53229,77.60499 c 0.19659,-0.810331 1.15066,-1.743265 1.68365,-3.584127 0.53299,-1.840862 0.64527,-4.591472 1.12232,-5.72065 0.47705,-1.129179 1.31897,-0.63811 1.76788,0.441878 0.44891,1.079987 0.50504,2.749603 -0.16843,4.689273 -0.67346,1.939671 -2.07628,4.148874 -3.05858,4.910071 -0.9823,0.761198 -1.54343,0.07389 -1.34684,-0.736445 z"
       id="path2127"
       inkscape:connector-curvature="0"
       inkscape:path-effect="#path-effect2129"
       inkscape:original-d="m 102.77449,77.727903 c 0.95441,-0.933224 1.90848,-1.86616 2.86222,-2.798804 0.11251,-2.749086 0.22483,-5.499694 0.33673,-8.249104 0.84208,0.490675 1.684,0.981746 2.5255,1.473056 0.0564,1.669017 0.11263,3.33863 0.16837,5.008385 -1.40296,2.209665 -2.80577,4.418871 -4.20916,6.628743 -0.56098,-0.687823 -1.1221,-1.375141 -1.68366,-2.062276 z" />
    <path
       inkscape:original-d="m 100.16456,76.879119 c 0.5162,-1.012004 1.0322,-2.023686 1.54802,-3.035045 -0.55058,-2.434062 -1.10166,-4.869421 -1.65278,-7.303645 0.75989,0.259686 1.51975,0.519751 2.27934,0.780111 0.42999,1.452474 0.85994,2.905522 1.28957,4.358785 -0.56468,2.222507 -1.12935,4.444582 -1.69432,6.667358 -0.58985,-0.489586 -1.17969,-0.9787 -1.76983,-1.467564 z"
       inkscape:path-effect="#path-effect2133"
       inkscape:connector-curvature="0"
       id="path2131"
       d="m 100.7176,76.617687 c -0.0369,-0.750584 0.47914,-1.762263 0.46166,-3.484944 -0.0175,-1.72268 -0.56859,-4.158033 -0.46414,-5.245156 0.10445,-1.087124 0.86431,-0.82706 1.45904,0.02922 0.59472,0.85628 1.02462,2.309344 0.95719,4.147172 -0.0674,1.837827 -0.6321,4.059901 -1.20957,4.92665 -0.57747,0.86675 -1.16732,0.377643 -1.20418,-0.372942 z"
       style="fill:#00ff00;stroke:#000000;stroke-width:0.26458332px;stroke-linecap:butt;stroke-linejoin:miter;stroke-opacity:1" />
  </g>
</svg>
