<?xml version="1.0" standalone="no"?>
<!DOCTYPE svg PUBLIC "-//W3C//DTD SVG 20010904//EN"
 "http://www.w3.org/TR/2001/REC-SVG-20010904/DTD/svg10.dtd">
<svg version="1.0" xmlns="http://www.w3.org/2000/svg"
 width="1463.000000pt" height="471.000000pt" viewBox="0 0 1463.000000 471.000000"
 preserveAspectRatio="xMidYMid meet">
<metadata>
Created by potrace 1.14, written by Peter Selinger 2001-2017
</metadata>
<g transform="translate(0.000000,471.000000) scale(0.100000,-0.100000)"
fill="#000000" stroke="none">
<path d="M10821 3695 c-39 -69 -71 -127 -71 -130 0 -3 46 -5 103 -5 l103 0 84
97 c47 54 98 112 114 130 l28 33 -145 0 -145 0 -71 -125z"/>
<path d="M4105 3471 c-45 -12 -87 -36 -117 -68 -24 -25 -1258 -1878 -1258
-1889 0 -2 91 -4 203 -4 l202 1 410 648 410 649 5 -567 c5 -614 4 -597 63
-660 87 -92 236 -94 319 -5 14 16 196 297 403 624 207 327 381 599 386 604 5
6 9 -244 9 -642 l0 -652 307 2 306 3 411 648 411 649 3 -651 2 -651 345 0 345
0 0 805 0 805 203 0 c240 0 310 -9 397 -53 112 -56 155 -135 154 -287 -1 -106
-27 -171 -91 -231 -80 -73 -183 -109 -393 -135 -177 -22 -236 -59 -247 -157
-10 -87 16 -123 326 -449 l282 -298 389 0 390 0 2 671 3 672 474 -624 c261
-343 492 -641 515 -661 66 -60 118 -81 183 -76 65 6 95 31 112 96 7 22 11 162
11 342 l1 305 24 -73 c87 -256 279 -467 516 -569 153 -66 212 -77 439 -77 241
-1 307 12 476 94 195 94 332 231 429 425 110 222 139 448 89 695 -34 167 -113
318 -232 442 -124 130 -270 212 -462 261 -74 19 -113 22 -295 22 -184 0 -221
-3 -298 -23 -329 -83 -558 -287 -663 -590 l-23 -67 0 343 -1 342 -165 0 -165
0 -2 -670 -3 -669 -465 612 c-256 336 -481 629 -500 651 -44 49 -101 75 -165
76 -69 0 -115 -26 -143 -80 -20 -40 -22 -59 -22 -195 l-1 -150 -30 59 c-83
164 -203 264 -389 324 -119 38 -173 42 -597 42 l-413 0 0 -52 0 -53 -19 42
c-26 57 -61 78 -131 78 -40 0 -70 -7 -105 -26 -48 -24 -66 -50 -615 -873
l-565 -849 -5 824 c-6 908 -2 861 -67 905 -42 27 -125 25 -188 -6 -49 -24 -60
-39 -480 -669 l-430 -643 -5 613 c-5 591 -6 615 -25 648 -38 65 -105 92 -180
72z m7015 -365 c248 -45 439 -222 495 -458 20 -84 19 -263 -1 -341 -43 -167
-161 -312 -314 -385 -121 -57 -172 -67 -340 -66 -161 0 -231 14 -334 65 -161
80 -273 221 -317 399 -17 69 -17 247 0 320 19 80 84 207 136 267 88 101 242
183 379 203 83 12 216 10 296 -4z m-2772 -1308 l-3 -251 -275 292 c-151 161
-276 296 -278 299 -1 4 34 15 78 25 197 45 396 199 457 357 18 45 18 45 21
-213 1 -142 1 -371 0 -509z"/>
<path d="M530 3444 c-100 -21 -219 -85 -287 -153 -251 -251 -184 -681 130
-836 99 -48 185 -65 348 -65 75 0 161 -5 192 -11 82 -17 165 -67 207 -125 31
-42 35 -57 38 -121 3 -59 0 -81 -18 -118 -26 -54 -89 -105 -168 -137 -55 -22
-69 -23 -454 -26 l-398 -3 0 -170 0 -170 423 3 c411 4 424 4 492 27 152 51
256 122 330 226 49 69 89 164 100 239 l8 49 22 -69 c36 -115 83 -192 170 -279
90 -91 159 -132 280 -167 71 -20 101 -23 270 -23 214 0 265 10 395 73 56 27
95 57 155 117 86 86 135 166 174 285 53 163 54 172 58 843 l4 627 -175 0 -176
0 0 -607 c-1 -671 -4 -716 -60 -830 -37 -75 -97 -125 -179 -151 -80 -24 -325
-24 -398 1 -110 38 -170 108 -207 242 -19 66 -20 110 -24 708 l-3 637 -175 0
-175 0 3 -558 3 -559 -30 61 c-37 77 -150 193 -225 231 -120 61 -150 67 -370
74 -180 6 -210 10 -245 28 -74 39 -115 105 -115 184 0 87 69 169 159 188 32 7
182 11 396 11 l345 0 0 170 0 170 -377 -1 c-283 0 -394 -4 -443 -15z"/>
<path d="M11860 3290 l0 -170 250 0 250 0 0 -805 0 -805 170 1 170 0 0 804 0
805 410 0 410 0 0 -482 c0 -266 0 -628 0 -805 l-1 -323 176 0 175 0 0 319 c0
246 -3 320 -12 324 -10 4 -10 6 0 6 9 1 12 104 12 481 l0 480 245 0 245 0 0
170 0 170 -1250 0 -1250 0 0 -170z"/>
</g>
</svg>
